<svg width="72" height="89" viewBox="0 0 72 89" fill="none" xmlns="http://www.w3.org/2000/svg">
<mask id="mask0" mask-type="alpha" maskUnits="userSpaceOnUse" x="0" y="0" width="11" height="11">
<path d="M5.22838 10.5958C8.11594 10.5958 10.4568 8.26208 10.4568 5.38333C10.4568 2.50457 8.11594 0.170898 5.22838 0.170898C2.34082 0.170898 0 2.50457 0 5.38333C0 8.26208 2.34082 10.5958 5.22838 10.5958Z" fill="url(#paint0_linear)"/>
</mask>
<g mask="url(#mask0)">
<path d="M5.22838 10.5958C8.11594 10.5958 10.4568 8.26208 10.4568 5.38333C10.4568 2.50457 8.11594 0.170898 5.22838 0.170898C2.34082 0.170898 0 2.50457 0 5.38333C0 8.26208 2.34082 10.5958 5.22838 10.5958Z" fill="url(#paint1_linear)"/>
</g>
<mask id="mask1" mask-type="alpha" maskUnits="userSpaceOnUse" x="30" y="0" width="11" height="11">
<path d="M35.5095 10.5958C38.397 10.5958 40.7378 8.26208 40.7378 5.38333C40.7378 2.50457 38.397 0.170898 35.5095 0.170898C32.6219 0.170898 30.2811 2.50457 30.2811 5.38333C30.2811 8.26208 32.6219 10.5958 35.5095 10.5958Z" fill="url(#paint2_linear)"/>
</mask>
<g mask="url(#mask1)">
<path d="M35.5095 10.5958C38.397 10.5958 40.7378 8.26208 40.7378 5.38333C40.7378 2.50457 38.397 0.170898 35.5095 0.170898C32.6219 0.170898 30.2811 2.50457 30.2811 5.38333C30.2811 8.26208 32.6219 10.5958 35.5095 10.5958Z" fill="url(#paint3_linear)"/>
</g>
<mask id="mask2" mask-type="alpha" maskUnits="userSpaceOnUse" x="60" y="0" width="12" height="11">
<path d="M65.7905 10.5958C68.6781 10.5958 71.0189 8.26208 71.0189 5.38333C71.0189 2.50457 68.6781 0.170898 65.7905 0.170898C62.903 0.170898 60.5621 2.50457 60.5621 5.38333C60.5621 8.26208 62.903 10.5958 65.7905 10.5958Z" fill="url(#paint4_linear)"/>
</mask>
<g mask="url(#mask2)">
<path d="M65.7905 10.5958C68.6781 10.5958 71.0189 8.26208 71.0189 5.38333C71.0189 2.50457 68.6781 0.170898 65.7905 0.170898C62.903 0.170898 60.5621 2.50457 60.5621 5.38333C60.5621 8.26208 62.903 10.5958 65.7905 10.5958Z" fill="url(#paint5_linear)"/>
</g>
<mask id="mask3" mask-type="alpha" maskUnits="userSpaceOnUse" x="0" y="26" width="11" height="11">
<path d="M5.22838 36.7126C8.11594 36.7126 10.4568 34.3789 10.4568 31.5001C10.4568 28.6213 8.11594 26.2876 5.22838 26.2876C2.34082 26.2876 0 28.6213 0 31.5001C0 34.3789 2.34082 36.7126 5.22838 36.7126Z" fill="url(#paint6_linear)"/>
</mask>
<g mask="url(#mask3)">
<path d="M5.22838 36.7126C8.11594 36.7126 10.4568 34.3789 10.4568 31.5001C10.4568 28.6213 8.11594 26.2876 5.22838 26.2876C2.34082 26.2876 0 28.6213 0 31.5001C0 34.3789 2.34082 36.7126 5.22838 36.7126Z" fill="url(#paint7_linear)"/>
</g>
<mask id="mask4" mask-type="alpha" maskUnits="userSpaceOnUse" x="30" y="26" width="11" height="11">
<path d="M35.5095 36.7126C38.397 36.7126 40.7378 34.3789 40.7378 31.5001C40.7378 28.6213 38.397 26.2876 35.5095 26.2876C32.6219 26.2876 30.2811 28.6213 30.2811 31.5001C30.2811 34.3789 32.6219 36.7126 35.5095 36.7126Z" fill="url(#paint8_linear)"/>
</mask>
<g mask="url(#mask4)">
<path d="M35.5095 36.7126C38.397 36.7126 40.7378 34.3789 40.7378 31.5001C40.7378 28.6213 38.397 26.2876 35.5095 26.2876C32.6219 26.2876 30.2811 28.6213 30.2811 31.5001C30.2811 34.3789 32.6219 36.7126 35.5095 36.7126Z" fill="url(#paint9_linear)"/>
</g>
<mask id="mask5" mask-type="alpha" maskUnits="userSpaceOnUse" x="60" y="26" width="12" height="11">
<path d="M65.7905 36.7126C68.6781 36.7126 71.0189 34.3789 71.0189 31.5001C71.0189 28.6213 68.6781 26.2876 65.7905 26.2876C62.903 26.2876 60.5621 28.6213 60.5621 31.5001C60.5621 34.3789 62.903 36.7126 65.7905 36.7126Z" fill="url(#paint10_linear)"/>
</mask>
<g mask="url(#mask5)">
<path d="M65.7905 36.7126C68.6781 36.7126 71.0189 34.3789 71.0189 31.5001C71.0189 28.6213 68.6781 26.2876 65.7905 26.2876C62.903 26.2876 60.5621 28.6213 60.5621 31.5001C60.5621 34.3789 62.903 36.7126 65.7905 36.7126Z" fill="url(#paint11_linear)"/>
</g>
<mask id="mask6" mask-type="alpha" maskUnits="userSpaceOnUse" x="0" y="52" width="11" height="11">
<path d="M5.22838 62.8835C8.11594 62.8835 10.4568 60.5497 10.4568 57.6709C10.4568 54.7922 8.11594 52.4585 5.22838 52.4585C2.34082 52.4585 0 54.7922 0 57.6709C0 60.5497 2.34082 62.8835 5.22838 62.8835Z" fill="url(#paint12_linear)"/>
</mask>
<g mask="url(#mask6)">
<path d="M5.22838 62.8835C8.11594 62.8835 10.4568 60.5497 10.4568 57.6709C10.4568 54.7922 8.11594 52.4585 5.22838 52.4585C2.34082 52.4585 0 54.7922 0 57.6709C0 60.5497 2.34082 62.8835 5.22838 62.8835Z" fill="url(#paint13_linear)"/>
</g>
<mask id="mask7" mask-type="alpha" maskUnits="userSpaceOnUse" x="30" y="52" width="11" height="11">
<path d="M35.5095 62.8835C38.397 62.8835 40.7378 60.5497 40.7378 57.6709C40.7378 54.7922 38.397 52.4585 35.5095 52.4585C32.6219 52.4585 30.2811 54.7922 30.2811 57.6709C30.2811 60.5497 32.6219 62.8835 35.5095 62.8835Z" fill="url(#paint14_linear)"/>
</mask>
<g mask="url(#mask7)">
<path d="M35.5095 62.8835C38.397 62.8835 40.7378 60.5497 40.7378 57.6709C40.7378 54.7922 38.397 52.4585 35.5095 52.4585C32.6219 52.4585 30.2811 54.7922 30.2811 57.6709C30.2811 60.5497 32.6219 62.8835 35.5095 62.8835Z" fill="url(#paint15_linear)"/>
</g>
<mask id="mask8" mask-type="alpha" maskUnits="userSpaceOnUse" x="60" y="52" width="12" height="11">
<path d="M65.7905 62.8835C68.6781 62.8835 71.0189 60.5497 71.0189 57.6709C71.0189 54.7922 68.6781 52.4585 65.7905 52.4585C62.903 52.4585 60.5621 54.7922 60.5621 57.6709C60.5621 60.5497 62.903 62.8835 65.7905 62.8835Z" fill="url(#paint16_linear)"/>
</mask>
<g mask="url(#mask8)">
<path d="M65.7905 62.8835C68.6781 62.8835 71.0189 60.5497 71.0189 57.6709C71.0189 54.7922 68.6781 52.4585 65.7905 52.4585C62.903 52.4585 60.5621 54.7922 60.5621 57.6709C60.5621 60.5497 62.903 62.8835 65.7905 62.8835Z" fill="url(#paint17_linear)"/>
</g>
<mask id="mask9" mask-type="alpha" maskUnits="userSpaceOnUse" x="0" y="78" width="11" height="11">
<path d="M5.22838 88.9999C8.11594 88.9999 10.4568 86.6662 10.4568 83.7875C10.4568 80.9087 8.11594 78.575 5.22838 78.575C2.34082 78.575 0 80.9087 0 83.7875C0 86.6662 2.34082 88.9999 5.22838 88.9999Z" fill="url(#paint18_linear)"/>
</mask>
<g mask="url(#mask9)">
<path d="M5.22838 88.9999C8.11594 88.9999 10.4568 86.6662 10.4568 83.7875C10.4568 80.9087 8.11594 78.575 5.22838 78.575C2.34082 78.575 0 80.9087 0 83.7875C0 86.6662 2.34082 88.9999 5.22838 88.9999Z" fill="url(#paint19_linear)"/>
</g>
<mask id="mask10" mask-type="alpha" maskUnits="userSpaceOnUse" x="30" y="78" width="11" height="11">
<path d="M35.5095 88.9999C38.397 88.9999 40.7378 86.6662 40.7378 83.7875C40.7378 80.9087 38.397 78.575 35.5095 78.575C32.6219 78.575 30.2811 80.9087 30.2811 83.7875C30.2811 86.6662 32.6219 88.9999 35.5095 88.9999Z" fill="url(#paint20_linear)"/>
</mask>
<g mask="url(#mask10)">
<path d="M35.5095 88.9999C38.397 88.9999 40.7378 86.6662 40.7378 83.7875C40.7378 80.9087 38.397 78.575 35.5095 78.575C32.6219 78.575 30.2811 80.9087 30.2811 83.7875C30.2811 86.6662 32.6219 88.9999 35.5095 88.9999Z" fill="url(#paint21_linear)"/>
</g>
<mask id="mask11" mask-type="alpha" maskUnits="userSpaceOnUse" x="60" y="78" width="12" height="11">
<path d="M65.7905 88.9999C68.6781 88.9999 71.0189 86.6662 71.0189 83.7875C71.0189 80.9087 68.6781 78.575 65.7905 78.575C62.903 78.575 60.5621 80.9087 60.5621 83.7875C60.5621 86.6662 62.903 88.9999 65.7905 88.9999Z" fill="url(#paint22_linear)"/>
</mask>
<g mask="url(#mask11)">
<path d="M65.7905 88.9999C68.6781 88.9999 71.0189 86.6662 71.0189 83.7875C71.0189 80.9087 68.6781 78.575 65.7905 78.575C62.903 78.575 60.5621 80.9087 60.5621 83.7875C60.5621 86.6662 62.903 88.9999 65.7905 88.9999Z" fill="url(#paint23_linear)"/>
</g>
<defs>
<linearGradient id="paint0_linear" x1="54.996" y1="131.303" x2="-16.4045" y2="-50.4991" gradientUnits="userSpaceOnUse">
<stop stop-color="white"/>
<stop offset="1" stop-color="white"/>
</linearGradient>
<linearGradient id="paint1_linear" x1="54.996" y1="131.303" x2="-16.4045" y2="-50.4991" gradientUnits="userSpaceOnUse">
<stop stop-color="white"/>
<stop offset="1" stop-color="white"/>
</linearGradient>
<linearGradient id="paint2_linear" x1="85.2771" y1="131.303" x2="13.8767" y2="-50.4991" gradientUnits="userSpaceOnUse">
<stop stop-color="white"/>
<stop offset="1" stop-color="white"/>
</linearGradient>
<linearGradient id="paint3_linear" x1="85.2771" y1="131.303" x2="13.8767" y2="-50.4991" gradientUnits="userSpaceOnUse">
<stop stop-color="white"/>
<stop offset="1" stop-color="white"/>
</linearGradient>
<linearGradient id="paint4_linear" x1="115.558" y1="131.303" x2="44.1578" y2="-50.4991" gradientUnits="userSpaceOnUse">
<stop stop-color="white"/>
<stop offset="1" stop-color="white"/>
</linearGradient>
<linearGradient id="paint5_linear" x1="115.558" y1="131.303" x2="44.1578" y2="-50.4991" gradientUnits="userSpaceOnUse">
<stop stop-color="white"/>
<stop offset="1" stop-color="white"/>
</linearGradient>
<linearGradient id="paint6_linear" x1="54.996" y1="157.421" x2="-16.4057" y2="-24.3824" gradientUnits="userSpaceOnUse">
<stop stop-color="white"/>
<stop offset="1" stop-color="white"/>
</linearGradient>
<linearGradient id="paint7_linear" x1="54.996" y1="157.421" x2="-16.4057" y2="-24.3824" gradientUnits="userSpaceOnUse">
<stop stop-color="white"/>
<stop offset="1" stop-color="white"/>
</linearGradient>
<linearGradient id="paint8_linear" x1="85.2771" y1="157.421" x2="13.8755" y2="-24.3824" gradientUnits="userSpaceOnUse">
<stop stop-color="white"/>
<stop offset="1" stop-color="white"/>
</linearGradient>
<linearGradient id="paint9_linear" x1="85.2771" y1="157.421" x2="13.8755" y2="-24.3824" gradientUnits="userSpaceOnUse">
<stop stop-color="white"/>
<stop offset="1" stop-color="white"/>
</linearGradient>
<linearGradient id="paint10_linear" x1="115.558" y1="157.421" x2="44.1566" y2="-24.3824" gradientUnits="userSpaceOnUse">
<stop stop-color="white"/>
<stop offset="1" stop-color="white"/>
</linearGradient>
<linearGradient id="paint11_linear" x1="115.558" y1="157.421" x2="44.1566" y2="-24.3824" gradientUnits="userSpaceOnUse">
<stop stop-color="white"/>
<stop offset="1" stop-color="white"/>
</linearGradient>
<linearGradient id="paint12_linear" x1="54.996" y1="183.592" x2="-16.4057" y2="1.78851" gradientUnits="userSpaceOnUse">
<stop stop-color="white"/>
<stop offset="1" stop-color="white"/>
</linearGradient>
<linearGradient id="paint13_linear" x1="54.996" y1="183.592" x2="-16.4057" y2="1.78851" gradientUnits="userSpaceOnUse">
<stop stop-color="white"/>
<stop offset="1" stop-color="white"/>
</linearGradient>
<linearGradient id="paint14_linear" x1="85.2771" y1="183.592" x2="13.8755" y2="1.78845" gradientUnits="userSpaceOnUse">
<stop stop-color="white"/>
<stop offset="1" stop-color="white"/>
</linearGradient>
<linearGradient id="paint15_linear" x1="85.2771" y1="183.592" x2="13.8755" y2="1.78845" gradientUnits="userSpaceOnUse">
<stop stop-color="white"/>
<stop offset="1" stop-color="white"/>
</linearGradient>
<linearGradient id="paint16_linear" x1="115.558" y1="183.592" x2="44.1566" y2="1.78845" gradientUnits="userSpaceOnUse">
<stop stop-color="white"/>
<stop offset="1" stop-color="white"/>
</linearGradient>
<linearGradient id="paint17_linear" x1="115.558" y1="183.592" x2="44.1566" y2="1.78845" gradientUnits="userSpaceOnUse">
<stop stop-color="white"/>
<stop offset="1" stop-color="white"/>
</linearGradient>
<linearGradient id="paint18_linear" x1="54.996" y1="209.709" x2="-16.4057" y2="27.905" gradientUnits="userSpaceOnUse">
<stop stop-color="white"/>
<stop offset="1" stop-color="white"/>
</linearGradient>
<linearGradient id="paint19_linear" x1="54.996" y1="209.709" x2="-16.4057" y2="27.905" gradientUnits="userSpaceOnUse">
<stop stop-color="white"/>
<stop offset="1" stop-color="white"/>
</linearGradient>
<linearGradient id="paint20_linear" x1="85.2771" y1="209.709" x2="13.8755" y2="27.9049" gradientUnits="userSpaceOnUse">
<stop stop-color="white"/>
<stop offset="1" stop-color="white"/>
</linearGradient>
<linearGradient id="paint21_linear" x1="85.2771" y1="209.709" x2="13.8755" y2="27.9049" gradientUnits="userSpaceOnUse">
<stop stop-color="white"/>
<stop offset="1" stop-color="white"/>
</linearGradient>
<linearGradient id="paint22_linear" x1="115.558" y1="209.709" x2="44.1566" y2="27.9049" gradientUnits="userSpaceOnUse">
<stop stop-color="white"/>
<stop offset="1" stop-color="white"/>
</linearGradient>
<linearGradient id="paint23_linear" x1="115.558" y1="209.709" x2="44.1566" y2="27.9049" gradientUnits="userSpaceOnUse">
<stop stop-color="white"/>
<stop offset="1" stop-color="white"/>
</linearGradient>
</defs>
</svg>
